<?xml version="1.0" encoding="iso-8859-1"?>
<!-- Generator: Adobe Illustrator 19.0.0, SVG Export Plug-In . SVG Version: 6.00 Build 0)  -->
<svg  id="el_q9TJh6D9M" version="1.1"   xmlns="http://www.w3.org/2000/svg" xmlns:xlink="http://www.w3.org/1999/xlink" x="0px" y="0px"
	 viewBox="0 0 339.225 339.225" style="enable-background:new 0 0 339.225 339.225;" xml:space="preserve">
	 <style>@-webkit-keyframes el_R9UW4-P7ah_cFTtL09b-_Animation{0%{-webkit-transform: translate(50.609373807907104px,
    50.12313608825207px) rotate(0deg) translate(-50.609373807907104px, -50.12313608825207px);transform:
    translate(50.609373807907104px, 50.12313608825207px) rotate(0deg) translate(-50.609373807907104px,
    -50.12313608825207px);}100%{-webkit-transform: translate(50.609373807907104px, 50.12313608825207px) rotate(360deg)
    translate(-50.609373807907104px, -50.12313608825207px);transform: translate(50.609373807907104px,
    50.12313608825207px) rotate(360deg) translate(-50.609373807907104px, -50.12313608825207px);}}@keyframes
    el_R9UW4-P7ah_cFTtL09b-_Animation{0%{-webkit-transform: translate(50.609373807907104px, 50.12313608825207px)
    rotate(0deg) translate(-50.609373807907104px, -50.12313608825207px);transform: translate(50.609373807907104px,
    50.12313608825207px) rotate(0deg) translate(-50.609373807907104px, -50.12313608825207px);}100%{-webkit-transform:
    translate(50.609373807907104px, 50.12313608825207px) rotate(360deg) translate(-50.609373807907104px,
    -50.12313608825207px);transform: translate(50.609373807907104px, 50.12313608825207px) rotate(360deg)
    translate(-50.609373807907104px, -50.12313608825207px);}}#el_q9TJh6D9M *{-webkit-animation-duration:
    3s;animation-duration: 3s;-webkit-animation-iteration-count: infinite;animation-iteration-count:
    infinite;-webkit-animation-timing-function: cubic-bezier(0, 0, 1, 1);animation-timing-function: cubic-bezier(0, 0,
    1, 1);}#el_S-2d9yQa5L{stroke: none;stroke-width: 1;fill: none;}#el_R9UW4-P7ah{-webkit-transform: translate(12px,
    6px);transform: translate(12px, 6px);fill: #BCBCBC;}#el_xmvLW_YrWI{-webkit-transform: translate(28px,
    39px);transform: translate(28px, 39px);}#el_nq-cSg8kZ_{fill: #7942A8;}#el_8sF3o8gajn{fill:
    #B72779;}#el_VCHGuqeFrW{fill: #EE4037;}#el_kL3ZG-zAr2{fill:
    #F59121;}#el_R9UW4-P7ah_cFTtL09b-{-webkit-animation-name: el_R9UW4-P7ah_cFTtL09b-_Animation;animation-name:
    el_R9UW4-P7ah_cFTtL09b-_Animation;-webkit-transform: translate(50.609373807907104px, 50.12313608825207px)
    rotate(0deg) translate(-50.609373807907104px, -50.12313608825207px);transform: translate(50.609373807907104px,
    50.12313608825207px) rotate(0deg) translate(-50.609373807907104px, -50.12313608825207px);}
	#el_R9UW4-P7ahprl{transform: scale(3.39);}
	#XMLID_992_{transform: translate(76px,67px) scale(0.6);}
  </style>
  <g id="el_R9UW4-P7ahprl">
	  <g id="el_R9UW4-P7ah_cFTtL09b-" data-animator-group="true" data-animator-type="1"  >
      <g id="el_R9UW4-P7ah" fill-rule="nonzero">
        <path  
          d="M2.04181362,19.9352748 C3.07651646,18.0314216 14.0719587,0.344900949 38.4633538,0.165552455 C64.0550042,-0.0137960379 75.3539593,20.2525837 75.7333503,21.1217341 C77.4164669,25.0053188 76.699073,29.9925865 73.1327972,31.7722754 C69.0422719,33.814089 64.7655001,32.5862416 62.4822559,29.3579688 C57.7709089,22.7358705 57.2535575,14.3892676 45.1337381,9.44338797 C18.8660819,-1.29682757 0.965722656,21.8598221 2.02111956,19.9283768 L2.04181362,19.9352748 Z M75.1884068,68.3317759 C74.1675,70.2218331 63.1720578,87.9221498 38.7806627,88.0808043 C13.1890123,88.2532547 1.87626116,68.0075691 1.50376814,67.1108266 C-0.206940569,63.247936 0.517351423,58.2675663 4.06983119,56.4878774 C8.16725446,54.4460638 12.4509242,55.6808092 14.7272705,58.902184 C19.4455155,65.5380783 19.9559689,73.8708852 32.0826862,78.8236628 C58.3641385,89.5431843 76.2713958,66.4072287 75.1953048,68.338674 L75.1884068,68.3317759 Z"
          id="el_j8B3lfKba6"/>
      </g>
    </g>
	</g>
<g id="XMLID_992_">
	<g id="XMLID_993_">
		<path id="XMLID_34_" style="fill:#f59121;" d="M103.002,311.022l-28.786-28.559l72.355-73.044l-52.977-2.822
			c-12.746-0.679-18.088-16.605-8.329-24.832l91.319-91.397l26.137,31.002l-47.826,47.92l52.807,2.78
			c12.146,0.647,17.815,15.349,9.249,23.983L103.002,311.022z"/>
	</g>
	<path id="XMLID_32_" style="fill:#b72779;" d="M127.293,330.605l-59.546,8.429c-12.449,1.762-23.113-8.902-21.351-21.351
		l8.429-59.546c2.183-15.424,21.046-21.725,32.061-10.71l51.117,51.117C149.018,309.559,142.717,328.422,127.293,330.605z"/>
	<g id="XMLID_994_">
		<g id="XMLID_995_">
			<g id="XMLID_996_">
				<path id="XMLID_18_" style="fill:#7942a8;" d="M214.912,62.914l-26.44-26.44L219.47,5.476c7.301-7.301,19.139-7.301,26.44,0l0,0
					c7.301,7.301,7.301,19.139,0,26.44L214.912,62.914z"/>
			</g>
			<g id="XMLID_997_">
				<path id="XMLID_16_" style="fill:#7942a8;" d="M256.546,104.548l-26.44-26.44l30.998-30.998c7.301-7.301,19.139-7.301,26.44,0
					l0,0c7.301,7.301,7.301,19.139,0,26.44L256.546,104.548z"/>
			</g>
		</g>
		<path id="XMLID_6_" style="fill:#7942a8;" d="M196.562,150.021L143,96.458c-8.539-8.539-8.539-22.385,0-30.924l24.995-24.995
			c8.539-8.539,22.385-8.539,30.924,0l53.562,53.562c8.539,8.539,8.539,22.385,0,30.924l-24.995,24.995
			C218.947,158.56,205.101,158.56,196.562,150.021z"/>
	</g>
</g>
 
</svg>
