<?xml version="1.0" encoding="iso-8859-1"?>
<!-- Generator: Adobe Illustrator 19.0.0, SVG Export Plug-In . SVG Version: 6.00 Build 0)  -->
<svg version="1.1" id="Layer_1" xmlns="http://www.w3.org/2000/svg" xmlns:xlink="http://www.w3.org/1999/xlink" x="0px" y="0px"
	 viewBox="0 0 339.225 339.225" style="enable-background:new 0 0 339.225 339.225;" xml:space="preserve">
<g id="XMLID_992_">
	<g id="XMLID_993_">
		<path id="XMLID_34_" style="fill:#f59121;" d="M103.002,311.022l-28.786-28.559l72.355-73.044l-52.977-2.822
			c-12.746-0.679-18.088-16.605-8.329-24.832l91.319-91.397l26.137,31.002l-47.826,47.92l52.807,2.78
			c12.146,0.647,17.815,15.349,9.249,23.983L103.002,311.022z"/>
	</g>
	<path id="XMLID_32_" style="fill:#b72779;" d="M127.293,330.605l-59.546,8.429c-12.449,1.762-23.113-8.902-21.351-21.351
		l8.429-59.546c2.183-15.424,21.046-21.725,32.061-10.71l51.117,51.117C149.018,309.559,142.717,328.422,127.293,330.605z"/>
	<g id="XMLID_994_">
		<g id="XMLID_995_">
			<g id="XMLID_996_">
				<path id="XMLID_18_" style="fill:#7942a8;" d="M214.912,62.914l-26.44-26.44L219.47,5.476c7.301-7.301,19.139-7.301,26.44,0l0,0
					c7.301,7.301,7.301,19.139,0,26.44L214.912,62.914z"/>
			</g>
			<g id="XMLID_997_">
				<path id="XMLID_16_" style="fill:#7942a8;" d="M256.546,104.548l-26.44-26.44l30.998-30.998c7.301-7.301,19.139-7.301,26.44,0
					l0,0c7.301,7.301,7.301,19.139,0,26.44L256.546,104.548z"/>
			</g>
		</g>
		<path id="XMLID_6_" style="fill:#7942a8;" d="M196.562,150.021L143,96.458c-8.539-8.539-8.539-22.385,0-30.924l24.995-24.995
			c8.539-8.539,22.385-8.539,30.924,0l53.562,53.562c8.539,8.539,8.539,22.385,0,30.924l-24.995,24.995
			C218.947,158.56,205.101,158.56,196.562,150.021z"/>
	</g>
</g>
 
</svg>
